# xmcd
#
# Track frame offsets:
#	150
#	15827
#	42015
#	66990
#	89529
#	113700
#	130582
#	150802
#	178650
#	200434
#
# Disc length: 2999 seconds
#
# Revision: 2416787449
# Processed by: cddbd v1.5.2PL0 Copyright (c) Steve Scherf et al.
# Submitted via: EZCDAudioConverter 8.0.2.1
#
DISCID=700bb50a
DTITLE=Khánh Ly - st. Trịnh Công Sơn. Ca Khúc Da Vàng 2
DYEAR=1997
DGENRE=Miscellaneous
TTITLE0=Chưa mất niềm tin
TTITLE1=Tình ca người mất trí
TTITLE2=Những giọt máu trổ bông
TTITLE3=Cúi xuống thật gần
TTITLE4=Đợi có một ngày
TTITLE5=Đại bác ru dêm
TTITLE6=Hãy đi cùng tôi
TTITLE7=Cho một người vừa nằm xuống
TTITLE8=Đừng mong ai đừng nghi ngại
TTITLE9=Hãy sống dùm tôi
EXTD=
EXTT0=
EXTT1=
EXTT2=
EXTT3=
EXTT4=
EXTT5=
EXTT6=
EXTT7=
EXTT8=
EXTT9=
PLAYORDER=
